<svg xmlns="http://www.w3.org/2000/svg" version="1.0" preserveAspectRatio="xMidYMid meet" viewBox="50.79 90.07 198.93 24.31">  <g transform="translate(0.000000,204.000000) scale(0.100000,-0.100000)" fill="#95deee" stroke="none"> <path d="M539 1127 c-10 -8 -19 -40 -25 -95 -10 -79 -9 -85 13 -108 28 -30 75 -32 121 -4 l33 20 29 -21 c20 -15 36 -20 54 -15 15 4 35 2 45 -3 13 -7 24 -6 40 6 17 11 26 12 34 4 16 -16 52 -14 67 4 11 13 14 13 27 0 17 -17 45 -19 59 -5 6 6 21 6 41 -2 27 -10 35 -9 51 5 16 15 21 15 38 2 25 -19 43 -19 65 1 16 15 20 15 41 0 29 -20 70 -20 109 0 28 14 32 14 50 -1 19 -18 69 -14 69 6 0 6 13 1 28 -10 27 -19 31 -19 51 -4 17 11 26 12 34 4 14 -14 42 -14 65 0 14 9 25 8 48 -4 26 -13 34 -13 74 0 33 11 49 12 62 4 24 -15 38 -14 59 5 16 15 20 15 41 0 37 -26 108 -16 130 18 4 7 15 3 30 -11 19 -18 35 -21 83 -21 38 1 67 7 78 16 15 13 19 13 35 -1 20 -18 129 -22 149 -5 7 6 13 25 13 44 0 18 5 56 11 85 9 40 8 57 -2 75 -16 30 -50 31 -75 3 -10 -12 -34 -28 -51 -36 -18 -7 -33 -18 -33 -23 0 -18 -18 -11 -25 9 -8 28 -33 33 -68 16 -28 -14 -32 -14 -49 2 -17 15 -20 15 -48 -5 -36 -27 -34 -27 -70 -1 -31 24 -71 20 -102 -8 -17 -15 -18 -14 -18 16 0 43 -37 62 -75 37 -14 -9 -25 -25 -25 -36 0 -19 -1 -20 -24 -5 -20 13 -32 14 -65 5 -39 -10 -81 -50 -81 -76 0 -8 -10 -14 -23 -14 -13 0 -28 -5 -35 -12 -9 -9 -12 -2 -12 33 0 60 -27 88 -68 73 -19 -7 -35 -7 -50 -1 -18 8 -29 6 -50 -10 l-28 -20 -37 21 -37 21 -42 -23 -41 -22 -24 22 c-21 19 -27 21 -54 11 -23 -9 -36 -9 -49 -1 -14 9 -23 8 -42 -4 -21 -14 -26 -14 -46 0 -18 12 -28 13 -48 4 -18 -9 -29 -9 -43 0 -14 8 -25 7 -49 -4 -20 -11 -34 -12 -40 -6 -6 6 -33 11 -61 11 -40 1 -56 -4 -76 -23 l-24 -23 -18 21 c-10 11 -27 22 -38 24 -11 2 -28 13 -38 26 -20 24 -44 28 -68 9z m53 -51 c-3 -36 -2 -37 13 -22 35 34 75 13 75 -40 0 -64 -76 -113 -129 -84 -21 10 -22 17 -17 92 4 81 14 101 46 95 11 -2 14 -13 12 -41z m1333 -13 c-5 -32 -9 -76 -10 -98 -2 -35 -5 -40 -26 -40 -22 0 -24 4 -22 45 4 124 7 139 22 143 42 12 44 9 36 -50z m548 26 c-12 -131 -17 -161 -30 -166 -7 -3 -20 0 -29 7 -11 10 -18 10 -26 2 -43 -43 -99 31 -68 89 13 23 61 49 91 49 18 0 19 2 9 15 -10 12 -8 16 11 24 33 13 44 8 42 -20z m-1619 -88 c-3 -36 -8 -69 -11 -73 -9 -16 -35 -7 -40 12 l-6 21 -14 -21 c-32 -46 -90 -6 -79 54 10 50 46 76 108 74 l49 -1 -7 -66z m96 49 c0 -20 0 -20 21 1 13 13 30 19 47 17 29 -3 29 -4 20 -103 -3 -32 -8 -41 -25 -43 -27 -4 -36 22 -23 68 5 19 6 38 2 42 -14 14 -45 -29 -51 -70 -5 -28 -11 -37 -26 -37 -18 0 -20 7 -20 65 0 79 0 80 31 80 17 0 24 -5 24 -20z m187 -1 l-6 -21 23 21 c12 11 35 21 51 21 l28 0 -7 -67 c-8 -74 -16 -89 -41 -79 -15 5 -16 15 -10 62 6 53 6 55 -13 45 -22 -12 -45 -60 -40 -87 2 -13 -4 -20 -20 -22 -29 -4 -36 16 -24 73 6 26 6 48 1 51 -17 10 2 24 33 24 26 0 30 -3 25 -21z m233 12 c0 -5 9 -11 20 -14 38 -10 19 -95 -27 -116 -56 -26 -103 0 -103 56 0 49 32 83 77 83 18 0 33 -4 33 -9z m127 -12 l-6 -21 23 21 c37 35 84 26 76 -14 -1 -5 -3 -32 -5 -60 -3 -42 -7 -51 -24 -53 -28 -4 -36 19 -23 68 5 22 7 42 2 45 -15 9 -52 -44 -54 -77 -1 -25 -6 -34 -22 -36 -28 -4 -36 19 -24 73 5 24 7 51 4 59 -5 13 1 16 26 16 28 0 32 -3 27 -21z m338 -4 c0 -23 -34 -33 -46 -13 -13 19 -41 -20 -37 -52 3 -28 38 -42 38 -16 0 21 29 21 37 0 8 -21 -22 -44 -57 -44 -68 0 -95 76 -45 126 20 20 33 25 68 22 34 -2 42 -7 42 -23z m225 16 c0 -5 9 -11 20 -14 25 -6 28 -62 5 -94 -21 -30 -78 -40 -110 -19 -55 36 -15 136 55 136 16 0 30 -4 30 -9z m125 -51 c-6 -50 -4 -60 8 -60 19 0 27 12 37 56 5 21 4 37 -2 40 -14 9 11 24 41 24 22 0 23 -3 16 -37 -4 -21 -9 -54 -10 -73 -3 -35 -30 -55 -44 -31 -5 8 -16 7 -38 -1 -54 -20 -65 -8 -59 69 3 38 5 69 5 71 1 1 13 2 27 2 26 0 26 0 19 -60z m-516 -43 c15 -19 -10 -53 -33 -44 -16 6 -22 38 -9 50 10 11 30 8 42 -6z"/> <path d="M596 1018 c-18 -25 -21 -68 -6 -68 13 0 50 37 50 49 0 17 -12 41 -21 41 -4 0 -15 -10 -23 -22z"/> <path d="M2380 1030 c-24 -24 -26 -58 -4 -67 21 -8 30 5 38 50 8 42 -3 48 -34 17z"/> <path d="M772 1034 c-22 -15 -30 -58 -13 -68 14 -9 39 18 46 52 7 36 0 39 -33 16z"/> <path d="M1327 1032 c-22 -24 -22 -71 -1 -79 21 -8 50 27 33 38 -7 4 -9 19 -7 33 6 31 -2 33 -25 8z"/> <path d="M2017 1032 c-37 -40 -7 -106 30 -69 13 13 14 19 3 31 -7 9 -10 25 -7 36 6 25 -5 26 -26 2z"/> </g> </svg>