<svg xmlns="http://www.w3.org/2000/svg" version="1.0" preserveAspectRatio="xMidYMid meet" viewBox="3.18 12.79 294.83 37.91">  <g transform="translate(0.000000,58.000000) scale(0.050000,-0.050000)" fill="#e7ee98" stroke="none"> <path d="M367 885 c5 -8 -31 -12 -80 -8 -114 9 -204 -28 -220 -91 -14 -55 17 -98 53 -76 19 12 19 19 0 30 -14 9 -19 26 -11 38 17 28 424 30 441 2 18 -30 44 -24 58 13 26 68 -151 146 -191 83 -12 -20 -16 -20 -17 -1 0 14 -10 25 -21 25 -12 0 -17 -7 -12 -15z m-39 -47 c6 -6 -33 -11 -88 -11 -54 0 -94 6 -89 15 11 17 160 14 177 -4z"/> <path d="M890 872 c-84 -36 -101 -61 -179 -273 -132 -355 -138 -460 -23 -431 55 14 92 67 111 162 11 54 21 61 94 66 l82 6 27 -116 c30 -126 81 -160 144 -97 17 17 39 31 48 31 9 0 19 122 23 270 4 177 -1 270 -15 270 -12 0 -23 -65 -26 -155 l-6 -155 -45 178 c-61 246 -111 298 -235 244z m101 -81 c66 -100 149 -591 100 -591 -28 0 -71 111 -71 184 0 52 -32 61 -158 46 l-115 -13 -25 -99 c-25 -96 -52 -135 -77 -109 -28 27 133 497 198 580 50 64 107 65 148 2z"/> <path d="M830 646 c-65 -155 -64 -174 10 -159 36 7 83 13 105 13 36 0 39 9 27 84 -25 152 -92 182 -142 62z m109 -61 c0 -14 -12 -25 -29 -25 -32 0 -38 35 -17 92 15 37 42 -3 46 -67z"/> <path d="M1274 883 c-21 -8 -36 -22 -34 -32 2 -9 -8 -24 -23 -33 -14 -9 -18 -23 -9 -32 10 -9 22 -5 27 9 12 34 63 85 86 85 10 0 13 -13 6 -30 -6 -16 -20 -24 -31 -18 -10 7 -7 -6 7 -29 14 -22 34 -35 44 -28 11 6 15 -2 8 -19 -9 -24 -2 -29 26 -21 45 11 48 30 16 91 -37 71 -61 81 -123 57z"/> <path d="M1700 843 l-57 -57 -12 47 c-13 51 -67 63 -107 23 -29 -29 -32 -104 -4 -86 11 7 20 30 20 51 0 22 10 39 21 39 12 0 16 -9 9 -20 -7 -11 1 -20 17 -20 42 0 51 -44 50 -230 -1 -88 5 -176 13 -195 8 -19 7 -35 -3 -35 -21 0 -19 -116 2 -165 17 -38 83 -46 131 -16 23 15 28 58 25 195 l-4 176 60 -129 c33 -71 65 -150 72 -174 18 -75 59 -97 115 -60 42 27 50 28 60 2 14 -37 259 -40 332 -3 122 61 36 171 -115 147 -61 -10 -65 -7 -65 46 0 54 7 58 101 71 195 27 219 170 28 170 -110 0 -112 1 -105 55 5 46 14 54 59 49 29 -4 84 7 123 23 l71 30 11 -94 c6 -51 16 -142 22 -203 32 -326 49 -363 131 -289 43 39 50 120 20 224 -25 89 -10 81 41 -20 65 -130 138 -218 175 -211 18 3 44 -2 57 -10 70 -44 186 58 186 163 0 110 174 87 191 -26 18 -121 49 -160 115 -144 96 24 102 153 22 450 -113 421 -283 377 -450 -117 l-66 -194 -87 128 c-89 130 -96 176 -34 227 125 104 -107 292 -264 214 -47 -24 -65 -24 -107 -2 -46 24 -122 22 -256 -5 -25 -5 -63 -27 -85 -49 -40 -40 -40 -40 -59 11 -40 104 -139 49 -141 -79 -3 -158 -29 -167 -68 -23 -32 118 -70 172 -121 172 -7 0 -39 -26 -70 -57z m106 -108 c27 -58 74 -161 104 -230 67 -150 78 -146 72 24 -6 160 16 321 41 296 25 -25 12 -610 -13 -618 -11 -4 -39 40 -63 98 -219 534 -227 540 -227 164 0 -166 -8 -269 -20 -269 -26 0 -27 520 0 589 28 75 51 63 106 -54z m1562 60 c68 -106 153 -595 103 -595 -30 0 -41 25 -62 145 -17 95 -21 97 -163 82 l-118 -12 -29 -101 c-36 -126 -91 -158 -72 -42 17 109 161 482 204 529 47 52 101 49 137 -6z m-913 0 c-5 -15 -53 -27 -122 -31 l-113 -6 -3 -79 c-2 -43 -4 -90 -5 -103 -1 -16 36 -22 123 -18 98 4 125 -1 125 -24 0 -35 -60 -53 -175 -54 l-85 0 0 -110 0 -110 122 0 c181 0 148 -48 -39 -56 l-143 -6 0 226 c1 355 6 372 117 381 196 16 206 15 198 -10z m296 -4 c81 -34 96 -133 32 -212 -36 -45 -35 -47 60 -186 53 -77 97 -148 97 -158 0 -46 -52 9 -130 136 -121 200 -155 198 -147 -9 4 -89 0 -162 -8 -162 -8 0 -15 2 -15 5 -1 3 -18 136 -38 295 -44 342 -32 366 149 291z"/> <path d="M3211 655 c-69 -164 -66 -178 32 -164 143 20 141 17 101 123 -44 120 -94 135 -133 41z m109 -60 c0 -19 -13 -35 -30 -35 -32 0 -38 35 -17 90 15 40 46 3 47 -55z"/> <path d="M2630 685 c20 -137 51 -161 119 -94 68 69 8 189 -96 189 -34 0 -36 -10 -23 -95z m111 13 c17 -31 17 -48 0 -65 -26 -26 -60 14 -61 72 0 48 34 44 61 -7z"/> <path d="M3685 883 c-132 -39 -140 -79 -98 -483 l23 -230 108 3 c225 6 379 233 247 365 l-55 55 37 64 c81 139 -81 278 -262 226z m170 -115 c57 -37 58 -107 1 -179 -31 -39 -37 -59 -20 -64 149 -50 87 -273 -90 -323 -90 -26 -103 -7 -125 189 -32 280 -28 404 14 416 52 14 169 -6 220 -39z"/> <path d="M3647 715 c7 -25 13 -74 13 -110 0 -75 57 -89 136 -34 92 65 30 189 -95 189 -58 0 -64 -5 -54 -45z m155 -27 c22 -27 21 -36 -11 -60 -47 -34 -71 -19 -71 43 0 56 42 65 82 17z"/> <path d="M3678 491 c-31 -30 9 -251 45 -251 108 0 187 173 100 218 -44 22 -135 43 -145 33z m158 -118 c5 -22 -7 -33 -32 -33 -40 0 -64 36 -64 94 0 42 87 -13 96 -61z"/> <path d="M4089 882 c-93 -40 -97 -185 -18 -657 26 -158 138 -57 125 114 l-8 119 78 -130 c84 -140 117 -167 164 -128 59 49 -32 286 -94 247 -13 -8 -17 -4 -8 10 8 13 1 42 -16 66 -27 39 -27 48 7 95 112 158 -47 340 -230 264z m173 -114 c48 -44 48 -82 -2 -164 l-41 -66 91 -140 c49 -76 90 -148 90 -159 0 -50 -40 -6 -121 131 -124 210 -165 208 -147 -10 16 -188 -22 -229 -41 -45 -7 63 -23 195 -35 292 -19 148 -18 180 6 196 39 26 155 6 200 -35z"/> <path d="M4091 705 c21 -126 30 -145 70 -145 100 0 115 149 20 200 -79 42 -104 26 -90 -55z m117 -11 c15 -23 14 -40 -3 -57 -29 -29 -35 -24 -53 50 -15 63 18 67 56 7z"/> <path d="M4643 880 c-160 -24 -197 -72 -59 -75 58 -1 90 3 71 8 -72 20 -31 37 75 30 96 -6 106 -10 80 -36 -17 -17 -30 -36 -30 -43 0 -8 -52 -14 -115 -14 -95 0 -115 -6 -118 -35 -2 -26 0 -27 7 -5 7 24 25 28 78 18 104 -19 204 7 241 64 54 83 -35 116 -230 88z"/> <path d="M5167 871 c-69 -30 -138 -117 -119 -148 7 -11 1 -24 -13 -29 -14 -4 -18 -16 -9 -26 9 -9 24 -4 33 13 64 110 110 177 118 169 5 -5 23 2 39 15 25 20 29 20 21 -5 -6 -16 2 -42 17 -57 15 -15 38 -67 51 -116 16 -61 33 -86 54 -82 49 9 47 66 -3 92 -25 13 -30 20 -11 14 23 -6 35 1 35 22 0 36 -62 147 -83 147 -7 0 -26 4 -40 9 -15 5 -56 -3 -90 -18z"/> <path d="M5540 865 c-72 -36 -124 -285 -59 -285 13 0 21 36 19 95 -5 137 -3 145 31 145 17 0 26 9 19 20 -7 11 1 20 18 20 16 0 35 -9 42 -20 7 -11 36 -14 64 -7 40 10 48 7 36 -13 -12 -20 -7 -23 18 -14 19 8 29 6 23 -4 -11 -18 45 -51 74 -45 8 2 14 -4 12 -12 -6 -30 28 -85 45 -74 10 7 12 22 4 35 -7 13 2 11 21 -4 32 -26 32 -31 4 -46 -40 -23 -41 -64 -1 -49 17 7 30 3 30 -8 0 -10 -9 -19 -20 -19 -26 0 -26 -74 0 -90 12 -7 15 -22 8 -34 -9 -13 -18 -12 -28 3 -12 20 -41 -63 -38 -110 0 -14 -135 -123 -168 -135 -13 -5 -18 -15 -10 -24 18 -19 112 39 162 98 147 175 153 399 13 522 -28 24 -39 28 -29 10 9 -16 -5 -9 -30 17 -30 31 -61 44 -92 38 -26 -5 -42 -2 -36 8 18 29 -59 19 -132 -18z"/> <path d="M460 764 c-92 -9 -100 -27 -97 -204 1 -111 6 -134 17 -90 17 65 23 42 28 -92 1 -45 -5 -86 -13 -91 -8 -5 -15 -18 -15 -29 0 -11 9 -15 20 -8 11 7 20 -1 20 -18 0 -16 -9 -35 -20 -42 -11 -7 -20 -3 -20 8 0 11 -13 16 -30 9 -26 -10 -30 26 -30 249 0 218 -5 262 -32 272 -49 19 -128 14 -128 -8 0 -11 29 -20 65 -20 l65 0 -7 -267 -7 -268 57 0 c97 -1 107 22 107 242 -1 139 -7 193 -20 173 -11 -16 -20 -25 -21 -20 -1 6 -5 26 -9 45 -3 19 2 30 12 24 10 -6 17 14 17 45 -2 50 -4 52 -20 16 -19 -40 -19 -40 -14 0 5 33 18 39 78 34 40 -4 79 2 85 13 17 28 -6 35 -88 27z"/> <path d="M4460 731 c0 -27 9 -54 20 -61 12 -7 20 13 20 49 0 33 -9 61 -20 61 -11 0 -20 -22 -20 -49z"/> <path d="M5540 745 c1 -27 5 -29 18 -8 13 21 19 20 29 -5 6 -18 3 -32 -8 -32 -10 0 -18 -38 -17 -85 0 -47 6 -74 11 -60 6 14 23 25 39 25 15 0 28 9 28 20 0 11 -16 20 -35 20 -21 0 -27 6 -13 15 52 35 50 145 -2 145 -34 0 -50 -11 -50 -35z"/> <path d="M1260 710 c0 -27 4 -50 8 -50 5 0 23 -5 40 -12 18 -7 32 -2 32 11 0 13 -11 17 -23 9 -16 -10 -20 -4 -11 20 9 23 6 29 -10 20 -15 -10 -19 -4 -10 19 7 18 4 33 -7 33 -10 0 -19 -22 -19 -50z"/> <path d="M5651 742 c-6 -10 12 -23 40 -31 29 -7 69 -43 94 -85 27 -45 46 -62 52 -45 5 15 -1 30 -14 35 -13 4 -18 16 -12 26 6 10 -2 24 -20 30 -17 7 -26 20 -20 30 10 16 -18 26 -56 20 -8 -1 -15 7 -15 18 0 25 -34 26 -49 2z"/> <path d="M1369 699 c-7 -12 3 -33 22 -47 19 -14 29 -36 21 -49 -8 -13 -4 -23 8 -23 12 0 16 -10 9 -22 -10 -15 0 -18 28 -9 33 11 43 5 43 -23 -1 -28 -5 -30 -18 -9 -33 53 -44 -15 -12 -76 42 -82 41 -84 47 109 4 111 -2 170 -16 170 -11 0 -22 -29 -23 -65 l-2 -65 -21 65 c-21 64 -60 85 -86 44z"/> <path d="M4583 670 c2 -100 -7 -123 -24 -60 l-16 60 3 -60 c3 -41 16 -62 41 -67 21 -4 32 2 26 12 -7 11 26 15 83 10 87 -8 95 -5 95 33 0 54 -99 60 -121 7 -12 -28 -22 -20 -52 45 -36 78 -37 79 -35 20z"/> <path d="M5113 665 c-38 -75 -63 -166 -35 -125 12 17 22 20 22 7 0 -16 21 -18 68 -7 55 12 67 9 58 -12 -6 -16 0 -28 12 -28 12 0 22 24 22 54 0 42 -5 49 -24 30 -36 -36 -70 -29 -82 16 -6 22 -2 35 8 29 17 -11 27 18 20 57 -2 10 8 10 21 2 14 -9 18 -6 9 9 -25 40 -70 25 -99 -32z"/> <path d="M1261 425 c-1 -186 -6 -225 -31 -225 -16 0 -30 -8 -30 -19 0 -23 82 -20 115 5 33 25 32 55 -1 43 -34 -13 -33 84 1 145 14 24 25 65 25 91 0 26 11 58 24 71 19 19 18 24 -2 24 -14 0 -42 20 -63 45 -37 45 -38 43 -38 -180z"/> <path d="M4951 491 c-73 -201 -87 -306 -42 -323 65 -25 129 26 155 122 14 50 36 90 51 90 15 0 22 9 15 20 -31 50 -111 22 -99 -35 10 -44 8 -49 -11 -25 -20 25 -22 24 -15 -11 5 -22 -4 -52 -19 -67 -16 -14 -24 -38 -18 -53 6 -17 0 -23 -17 -17 -32 12 -55 108 -26 108 11 0 15 18 9 40 -6 22 -3 40 6 40 21 0 82 180 68 202 -5 10 -1 18 11 18 11 0 21 9 21 20 0 61 -42 1 -89 -129z"/> <path d="M4818 611 c-2 -6 -5 -20 -8 -31 -3 -11 -6 -32 -7 -46 -2 -15 -28 -36 -58 -48 l-55 -22 53 -2 c53 -2 108 41 83 65 -7 7 -2 13 11 13 28 0 31 53 3 70 -11 7 -21 7 -22 1z"/> <path d="M5365 587 c-42 -17 -28 -67 20 -69 34 -2 36 -5 10 -12 -21 -5 -35 -28 -35 -59 0 -27 9 -44 20 -37 12 7 15 -12 7 -52 -9 -45 -7 -60 9 -50 15 9 21 -7 18 -47 -2 -34 -15 -61 -29 -61 -14 0 -25 -9 -25 -20 0 -29 33 -25 66 9 34 34 45 262 14 281 -11 7 -16 21 -10 30 6 10 -5 27 -25 38 -19 12 -24 21 -10 21 14 1 25 10 25 21 0 21 -15 23 -55 7z"/> <path d="M5495 549 c-8 -9 -15 -65 -15 -126 0 -78 6 -105 21 -90 12 12 19 68 15 126 -3 58 -13 98 -21 90z"/> <path d="M5600 559 c-1 -5 -5 -58 -11 -119 -6 -73 -3 -96 8 -70 10 22 14 47 9 55 -4 8 6 9 23 3 40 -16 41 48 0 101 -16 21 -29 35 -29 30z"/> <path d="M5822 515 c7 -41 -39 -135 -73 -148 -17 -7 -27 -24 -21 -39 6 -15 2 -32 -9 -39 -10 -6 -19 3 -19 20 0 17 -9 31 -20 31 -11 0 -20 14 -20 30 0 17 -9 30 -20 30 -11 0 -20 -23 -20 -52 0 -35 9 -49 27 -42 14 6 26 -2 26 -18 0 -15 -18 -29 -41 -30 -27 -1 -32 -5 -14 -12 41 -17 150 48 186 110 43 75 65 184 37 184 -13 0 -21 -11 -19 -25z"/> <path d="M1360 500 c0 -11 7 -20 16 -20 8 0 17 -16 18 -36 11 -139 146 -308 203 -253 20 19 -23 49 -45 31 -19 -16 -41 19 -90 139 -57 139 -102 201 -102 139z"/> <path d="M4542 395 c-1 -74 5 -95 29 -95 17 0 26 -9 19 -20 -18 -30 176 -25 210 5 24 21 24 20 2 -10 -23 -29 -22 -35 1 -36 57 -3 -57 -36 -129 -38 -46 0 -71 -9 -64 -21 17 -27 150 -26 150 1 0 12 8 16 18 10 9 -6 27 1 39 15 24 29 18 103 -9 106 -10 1 -32 8 -49 15 -17 8 -62 12 -100 9 -60 -5 -69 0 -67 39 2 25 -4 45 -13 45 -9 0 -20 16 -25 35 -5 19 -10 -8 -12 -60z"/> <path d="M5150 419 c8 -12 39 -19 69 -15 47 7 53 2 45 -38 -5 -25 -1 -46 9 -46 9 0 18 -32 18 -70 2 -68 19 -107 39 -87 6 6 -2 68 -16 139 l-26 128 -76 6 c-54 5 -72 0 -62 -17z"/> <path d="M5513 287 c-20 -21 -15 -103 7 -117 12 -7 20 16 20 59 0 73 -4 81 -27 58z"/> </g> </svg>